<mxfile host="65bd71144e">
    <diagram id="o_kzO6A57pQVXq1Kj1Pe" name="Page-1">
        <mxGraphModel dx="599" dy="301" grid="1" gridSize="10" guides="1" tooltips="1" connect="1" arrows="1" fold="1" page="1" pageScale="1" pageWidth="850" pageHeight="1100" math="0" shadow="0">
            <root>
                <mxCell id="0"/>
                <mxCell id="1" parent="0"/>
                <object label="&lt;h1&gt;FIFO&lt;/h1&gt;" FIFO="fpga_mafia/source/common/fifo.sv" id="2">
                    <mxCell style="rounded=0;whiteSpace=wrap;html=1;fontStyle=1" vertex="1" parent="1">
                        <mxGeometry x="170" y="90" width="440" height="100" as="geometry"/>
                    </mxCell>
                </object>
                <mxCell id="4" value="clk" style="endArrow=classic;html=1;fontSize=16;entryX=-0.001;entryY=0.122;entryDx=0;entryDy=0;entryPerimeter=0;" edge="1" parent="1" target="2">
                    <mxGeometry width="50" height="50" relative="1" as="geometry">
                        <mxPoint x="30" y="100" as="sourcePoint"/>
                        <mxPoint x="160" y="100" as="targetPoint"/>
                    </mxGeometry>
                </mxCell>
                <mxCell id="5" value="rst" style="endArrow=classic;html=1;fontSize=16;entryX=-0.001;entryY=0.122;entryDx=0;entryDy=0;entryPerimeter=0;" edge="1" parent="1">
                    <mxGeometry width="50" height="50" relative="1" as="geometry">
                        <mxPoint x="30.439999999999998" y="120.24" as="sourcePoint"/>
                        <mxPoint x="170.00000000000006" y="119.99999999999999" as="targetPoint"/>
                    </mxGeometry>
                </mxCell>
                <mxCell id="11" value="push" style="endArrow=classic;html=1;fontSize=16;entryX=-0.001;entryY=0.122;entryDx=0;entryDy=0;entryPerimeter=0;" edge="1" parent="1">
                    <mxGeometry width="50" height="50" relative="1" as="geometry">
                        <mxPoint x="30.440000000000055" y="140.24" as="sourcePoint"/>
                        <mxPoint x="170" y="140" as="targetPoint"/>
                    </mxGeometry>
                </mxCell>
                <mxCell id="14" value="push_data" style="endArrow=classic;html=1;fontSize=16;entryX=-0.001;entryY=0.122;entryDx=0;entryDy=0;entryPerimeter=0;fontStyle=0" edge="1" parent="1">
                    <mxGeometry width="50" height="50" relative="1" as="geometry">
                        <mxPoint x="30.440000000000055" y="160.24" as="sourcePoint"/>
                        <mxPoint x="170" y="160" as="targetPoint"/>
                    </mxGeometry>
                </mxCell>
                <mxCell id="15" value="pop_data" style="endArrow=classic;html=1;fontSize=16;entryX=-0.001;entryY=0.122;entryDx=0;entryDy=0;entryPerimeter=0;" edge="1" parent="1">
                    <mxGeometry width="50" height="50" relative="1" as="geometry">
                        <mxPoint x="610" y="100.24000000000001" as="sourcePoint"/>
                        <mxPoint x="749.56" y="100" as="targetPoint"/>
                    </mxGeometry>
                </mxCell>
                <mxCell id="16" value="pop" style="endArrow=classic;html=1;fontSize=16;entryX=-0.001;entryY=0.122;entryDx=0;entryDy=0;entryPerimeter=0;" edge="1" parent="1">
                    <mxGeometry width="50" height="50" relative="1" as="geometry">
                        <mxPoint x="30.440000000000055" y="180.24" as="sourcePoint"/>
                        <mxPoint x="170" y="180" as="targetPoint"/>
                    </mxGeometry>
                </mxCell>
                <mxCell id="18" value="full" style="endArrow=classic;html=1;fontSize=16;entryX=-0.001;entryY=0.122;entryDx=0;entryDy=0;entryPerimeter=0;" edge="1" parent="1">
                    <mxGeometry width="50" height="50" relative="1" as="geometry">
                        <mxPoint x="610" y="130.24" as="sourcePoint"/>
                        <mxPoint x="749.56" y="130" as="targetPoint"/>
                    </mxGeometry>
                </mxCell>
                <mxCell id="19" value="almost_full" style="endArrow=classic;html=1;fontSize=16;entryX=-0.001;entryY=0.122;entryDx=0;entryDy=0;entryPerimeter=0;" edge="1" parent="1">
                    <mxGeometry width="50" height="50" relative="1" as="geometry">
                        <mxPoint x="610" y="150.24" as="sourcePoint"/>
                        <mxPoint x="749.56" y="150" as="targetPoint"/>
                    </mxGeometry>
                </mxCell>
                <mxCell id="20" value="empty" style="endArrow=classic;html=1;fontSize=16;entryX=-0.001;entryY=0.122;entryDx=0;entryDy=0;entryPerimeter=0;" edge="1" parent="1">
                    <mxGeometry width="50" height="50" relative="1" as="geometry">
                        <mxPoint x="610" y="170.24" as="sourcePoint"/>
                        <mxPoint x="749.56" y="170" as="targetPoint"/>
                    </mxGeometry>
                </mxCell>
            </root>
        </mxGraphModel>
    </diagram>
</mxfile>